<svg xmlns="http://www.w3.org/2000/svg" viewBox="0 0 100 100" width="100" height="100">
  <!-- Background -->
  <rect width="100" height="100" fill="#1a3a52"/>
  
  <!-- Factory Emoji Style Icon -->
  <g transform="translate(50, 50)">
    <!-- Main Building -->
    <rect x="-22" y="-16" width="44" height="32" fill="#2c5aa0" stroke="#87ceeb" stroke-width="2"/>
    
    <!-- Roof -->
    <polygon points="-22,-16 0,-26 22,-16" fill="#34568B" stroke="#87ceeb" stroke-width="2"/>
    
    <!-- Windows -->
    <g fill="#87ceeb" stroke="#1a3a52" stroke-width="1">
      <rect x="-18" y="-10" width="6" height="6"/>
      <rect x="-8" y="-10" width="6" height="6"/>
      <rect x="2" y="-10" width="6" height="6"/>
      <rect x="12" y="-10" width="6" height="6"/>
      
      <rect x="-18" y="0" width="6" height="6"/>
      <rect x="-8" y="0" width="6" height="6"/>
      <rect x="2" y="0" width="6" height="6"/>
      <rect x="12" y="0" width="6" height="6"/>
    </g>
    
    <!-- Left Chimney -->
    <rect x="-28" y="-12" width="6" height="20" fill="#34568B" stroke="#87ceeb" stroke-width="1.5"/>
    <circle cx="-25" cy="-15" r="2.5" fill="#87ceeb" opacity="0.8"/>
    
    <!-- Right Chimney -->
    <rect x="22" y="-10" width="6" height="18" fill="#34568B" stroke="#87ceeb" stroke-width="1.5"/>
    <circle cx="25" cy="-13" r="2" fill="#87ceeb" opacity="0.8"/>
    
    <!-- Door -->
    <rect x="-6" y="10" width="12" height="10" fill="#1a3a52" stroke="#87ceeb" stroke-width="1.5"/>
  </g>
</svg>


